<?xml version="1.0" standalone="no"?>
<!DOCTYPE svg PUBLIC "-//W3C//DTD SVG 20010904//EN"
 "http://www.w3.org/TR/2001/REC-SVG-20010904/DTD/svg10.dtd">
<svg version="1.0" xmlns="http://www.w3.org/2000/svg"
 width="580.000000pt" height="916.000000pt" viewBox="0 0 580.000000 916.000000"
 preserveAspectRatio="xMidYMid meet">

<g transform="translate(0.000000,916.000000) scale(0.100000,-0.100000)"
fill="#000000" stroke="none">
<path d="M2685 9047 c-103 -45 -147 -85 -233 -210 -91 -133 -187 -369 -233
-577 -39 -173 -53 -227 -62 -238 -7 -9 -20 8 -49 65 -50 97 -88 152 -139 203
-39 38 -123 100 -137 100 -4 0 -25 9 -46 21 -34 18 -57 21 -156 21 -110 0
-121 -2 -185 -32 -49 -23 -89 -52 -139 -103 -98 -98 -101 -104 -181 -282 -32
-70 -55 -159 -83 -320 -15 -79 -33 -287 -41 -457 -7 -157 -13 -171 -63 -141
-18 10 -61 29 -95 42 -55 21 -75 23 -180 19 -120 -4 -130 -7 -241 -62 -59 -28
-162 -124 -205 -189 -79 -119 -113 -246 -133 -493 -16 -203 -15 -276 6 -619
13 -208 7 -1213 -10 -1655 -21 -561 -24 -916 -7 -1090 9 -91 19 -212 22 -269
3 -58 12 -132 20 -165 7 -34 17 -101 20 -151 4 -49 13 -115 20 -145 8 -30 19
-99 25 -153 5 -55 14 -107 20 -116 5 -10 12 -42 15 -72 4 -30 15 -81 25 -114
10 -33 21 -79 24 -101 3 -23 13 -54 21 -70 8 -16 15 -39 15 -51 0 -12 9 -45
20 -73 11 -28 20 -59 20 -68 0 -10 9 -35 20 -57 11 -22 20 -46 20 -54 0 -14
17 -55 66 -157 13 -28 24 -54 24 -57 0 -11 122 -220 167 -285 83 -120 220
-285 300 -363 75 -73 241 -201 293 -227 14 -6 32 -16 40 -22 8 -5 26 -14 40
-20 14 -5 32 -14 40 -18 54 -31 173 -76 290 -111 41 -12 95 -29 120 -36 25 -8
70 -17 100 -21 30 -4 66 -11 80 -16 14 -6 68 -16 120 -24 52 -7 120 -18 150
-24 79 -17 784 -9 825 9 17 7 59 19 95 26 61 13 123 31 195 56 17 6 48 18 70
25 45 16 58 22 135 57 87 40 162 77 201 101 20 11 70 40 110 64 73 42 87 51
166 104 148 98 286 231 546 522 23 26 134 188 222 326 102 159 332 589 424
795 18 39 36 78 41 87 6 10 16 35 24 55 8 21 23 62 35 91 51 128 64 159 77
197 7 22 25 72 39 110 14 39 40 113 57 165 17 52 37 109 44 127 8 17 14 37 14
45 0 12 22 82 61 193 10 28 27 84 39 125 11 41 26 89 31 105 6 17 15 50 20 75
4 25 15 68 23 95 14 47 20 74 46 222 6 32 18 101 28 153 14 80 17 163 17 540
0 440 0 446 -22 494 -13 27 -23 54 -23 60 -1 13 -48 108 -75 151 -74 116 -178
215 -275 262 -25 12 -80 29 -123 39 -78 18 -79 18 -162 -4 -142 -37 -227 -113
-309 -276 -25 -50 -46 -96 -46 -102 0 -5 -9 -27 -20 -49 -11 -22 -20 -47 -20
-57 0 -22 -20 -34 -30 -18 -18 29 -41 186 -50 350 -6 96 -15 200 -21 230 -14
78 -19 221 -29 865 -7 430 -13 586 -24 637 -8 37 -19 116 -25 175 -5 59 -17
135 -25 168 -9 32 -16 73 -16 90 0 16 -7 59 -16 95 -9 36 -22 103 -29 150 -58
354 -138 538 -301 688 -80 74 -158 121 -264 160 -85 30 -218 27 -293 -7 -60
-28 -125 -71 -156 -105 -31 -33 -39 -33 -53 2 -57 139 -92 216 -109 242 -9 14
-29 45 -45 70 -69 108 -191 211 -304 257 -74 31 -176 31 -245 0z m181 -153
c64 -22 97 -45 163 -113 152 -159 236 -391 283 -781 4 -41 15 -111 23 -155 8
-44 19 -147 25 -230 6 -82 15 -166 21 -185 5 -19 16 -190 24 -380 8 -190 19
-381 25 -425 12 -95 32 -929 34 -1407 1 -185 4 -340 8 -343 3 -4 24 -9 46 -12
34 -5 43 -1 66 23 14 16 28 42 30 59 3 16 10 62 15 102 13 88 14 361 1 463 -6
41 -14 296 -20 565 -9 442 -23 788 -35 855 -2 14 -9 135 -15 270 -6 135 -18
286 -26 335 -8 50 -19 154 -25 232 -5 79 -14 155 -20 170 -6 16 -13 71 -16
124 -5 82 -3 105 16 160 25 72 60 131 100 165 40 35 133 67 178 61 61 -8 167
-51 223 -92 42 -30 148 -149 167 -187 58 -118 98 -234 109 -318 3 -30 12 -71
19 -90 7 -20 16 -69 20 -110 4 -41 13 -91 21 -112 7 -20 16 -70 19 -110 4 -40
13 -95 21 -123 8 -27 18 -105 24 -172 5 -67 14 -142 19 -165 16 -73 20 -204
26 -718 6 -571 11 -689 30 -820 8 -52 19 -170 25 -261 5 -91 15 -192 21 -224
11 -58 7 -301 -6 -383 -4 -26 -3 -54 5 -71 9 -23 8 -39 -8 -87 -20 -59 -41
-111 -66 -169 -8 -16 -23 -52 -34 -80 -11 -27 -27 -68 -36 -90 -21 -51 -46
-149 -46 -179 0 -25 41 -76 62 -76 50 1 91 47 116 130 16 52 41 121 56 155 8
17 24 55 36 85 12 30 31 73 41 96 11 23 19 48 19 55 0 8 6 23 14 34 7 11 17
31 20 45 8 27 42 117 62 165 6 17 17 46 22 65 6 19 22 67 37 105 14 39 30 86
35 106 5 19 16 49 25 65 8 16 15 33 15 38 0 12 44 123 64 161 9 17 16 34 16
39 0 16 81 110 117 136 30 21 49 26 120 29 76 3 89 0 139 -25 62 -31 142 -105
182 -168 34 -54 82 -148 82 -163 0 -6 6 -24 14 -40 24 -46 56 -243 56 -339 0
-49 -7 -138 -15 -199 -8 -60 -15 -143 -15 -183 0 -40 -6 -105 -14 -145 -8 -40
-17 -103 -21 -142 -3 -38 -10 -83 -15 -100 -6 -16 -16 -66 -25 -110 -21 -113
-30 -149 -95 -375 -41 -141 -62 -205 -76 -238 -8 -18 -14 -40 -14 -48 0 -8 -8
-36 -19 -62 -10 -26 -32 -90 -49 -142 -48 -150 -123 -354 -148 -403 -8 -16
-14 -34 -14 -40 0 -7 -8 -28 -19 -47 -10 -19 -22 -46 -26 -60 -20 -68 -267
-565 -323 -650 -9 -14 -29 -50 -45 -80 -16 -30 -45 -78 -63 -106 -19 -28 -34
-54 -34 -58 0 -4 -8 -19 -19 -34 -10 -15 -46 -70 -81 -122 -83 -126 -153 -212
-274 -338 -137 -143 -271 -261 -369 -326 -109 -71 -326 -194 -407 -230 -36
-16 -76 -34 -90 -41 -14 -7 -63 -25 -110 -40 -47 -15 -109 -36 -138 -46 -30
-11 -66 -19 -80 -19 -15 -1 -45 -7 -67 -16 -22 -8 -112 -21 -200 -30 -135 -14
-188 -14 -340 -5 -99 7 -205 18 -235 26 -30 8 -75 15 -100 15 -25 0 -78 9
-119 20 -41 11 -87 20 -103 20 -16 0 -44 6 -62 14 -18 7 -53 17 -77 21 -24 4
-55 13 -69 20 -14 7 -41 15 -60 19 -19 3 -48 12 -65 20 -16 8 -57 24 -90 37
-66 25 -202 101 -278 154 -156 111 -347 328 -494 563 -65 106 -139 260 -191
402 -44 122 -52 148 -97 330 -9 36 -23 86 -31 111 -7 25 -18 77 -24 116 -5 39
-14 82 -19 96 -6 15 -15 73 -21 130 -6 57 -15 119 -21 138 -5 19 -14 86 -19
149 -6 63 -17 147 -25 185 -35 172 -46 1268 -14 1510 9 67 9 321 4 995 -9
1011 -8 1267 6 1325 6 22 15 60 20 85 24 106 102 224 182 278 81 54 149 74
229 69 40 -2 95 -12 121 -22 120 -45 215 -214 232 -415 3 -47 10 -103 15 -125
5 -22 14 -112 20 -200 6 -88 17 -198 25 -245 8 -47 20 -159 25 -249 6 -90 15
-183 20 -208 6 -24 15 -101 21 -171 5 -70 16 -152 23 -182 8 -30 17 -86 20
-125 4 -38 18 -107 32 -153 21 -68 30 -85 54 -97 37 -19 60 -19 89 1 22 16 23
21 19 99 -3 45 -11 91 -17 103 -6 12 -18 77 -26 144 -8 68 -19 137 -24 154 -5
17 -12 77 -15 135 -4 57 -14 145 -21 194 -8 50 -19 165 -25 256 -6 92 -15 182
-20 200 -6 19 -15 108 -20 199 -6 91 -17 199 -25 240 -7 41 -17 104 -20 140
-4 36 -14 81 -23 100 -20 43 -22 333 -4 505 6 61 16 173 21 250 5 77 14 158
19 180 6 22 18 69 27 105 27 112 31 123 74 212 123 255 344 326 524 168 41
-36 137 -173 137 -195 0 -4 9 -26 19 -49 25 -53 49 -126 67 -201 7 -33 20 -89
29 -125 8 -36 15 -78 15 -95 0 -16 7 -55 15 -85 8 -30 20 -111 25 -180 6 -69
15 -141 20 -160 6 -19 15 -120 20 -225 6 -104 15 -215 21 -245 5 -30 16 -143
24 -250 8 -107 19 -211 25 -230 6 -19 15 -96 20 -171 6 -75 15 -152 20 -170 6
-19 15 -101 20 -184 6 -82 17 -199 25 -260 8 -60 19 -185 24 -276 8 -137 13
-174 30 -208 39 -75 97 -78 133 -7 20 38 20 46 10 122 -7 44 -17 158 -22 254
-5 95 -16 214 -24 264 -8 50 -17 145 -21 211 -4 66 -13 147 -20 180 -8 33 -17
105 -20 160 -4 55 -13 138 -21 185 -8 47 -19 159 -25 250 -5 91 -14 190 -20
220 -5 30 -16 150 -24 265 -8 116 -19 224 -24 242 -5 17 -12 71 -16 120 -4 48
-11 106 -15 127 -6 27 -4 57 6 95 8 30 14 77 14 103 0 26 4 78 10 115 5 38 14
109 20 158 12 111 34 233 56 305 8 30 25 87 36 125 11 39 26 84 34 100 7 17
26 62 43 101 72 168 150 270 236 310 61 28 69 28 131 8z"/>
<path d="M3560 3633 c-14 -3 -32 -11 -40 -18 -8 -7 -32 -16 -53 -19 -35 -7
-97 -32 -137 -57 -8 -5 -26 -14 -40 -19 -14 -6 -32 -15 -40 -20 -8 -6 -26 -15
-40 -21 -14 -6 -32 -15 -40 -20 -74 -45 -106 -66 -119 -79 -9 -8 -41 -31 -71
-51 -30 -20 -66 -48 -80 -61 -14 -13 -45 -37 -69 -53 -25 -17 -78 -63 -118
-104 l-73 -73 -52 43 c-29 24 -57 49 -61 56 -4 7 -14 13 -22 13 -7 0 -36 18
-64 40 -28 22 -57 40 -64 40 -8 0 -26 9 -40 20 -14 11 -30 20 -37 20 -7 0 -23
9 -37 20 -14 11 -36 20 -48 20 -12 0 -28 7 -35 15 -7 8 -28 17 -49 20 -20 3
-51 14 -70 23 -29 14 -65 17 -232 16 -183 -1 -199 -3 -232 -23 -19 -11 -43
-21 -53 -22 -31 -1 -161 -81 -226 -140 -41 -38 -168 -207 -168 -225 0 -6 -6
-17 -14 -23 -8 -7 -18 -25 -21 -41 -3 -16 -13 -34 -21 -41 -8 -6 -14 -22 -14
-36 0 -13 -8 -40 -19 -61 -39 -79 -35 -385 8 -496 11 -28 22 -58 26 -66 3 -8
16 -33 30 -55 13 -22 33 -56 44 -76 11 -19 36 -55 57 -80 20 -24 48 -62 62
-83 42 -68 475 -493 544 -535 26 -17 59 -42 267 -201 56 -44 106 -80 110 -80
3 0 22 -15 41 -33 52 -46 129 -108 175 -140 22 -15 62 -47 89 -72 27 -24 73
-58 104 -76 71 -40 107 -34 176 28 27 24 66 53 85 64 20 11 54 31 76 44 22 13
54 31 70 41 45 25 208 148 257 194 24 22 46 40 49 40 9 0 77 55 130 105 26 25
86 76 134 116 76 62 285 268 343 339 72 87 182 231 182 238 0 5 16 30 35 55
19 25 40 56 46 69 5 13 21 41 34 63 14 22 38 69 55 105 17 36 37 78 45 93 8
16 15 36 15 45 1 9 9 35 20 57 11 22 19 59 20 83 0 23 7 59 16 80 21 49 21
242 1 292 -8 19 -18 62 -22 95 -3 33 -12 69 -19 80 -8 11 -17 36 -21 55 -4 19
-13 42 -20 50 -7 8 -16 26 -20 40 -4 14 -16 36 -26 49 -11 13 -19 29 -19 37 0
18 -90 118 -171 189 -19 17 -57 41 -84 54 -28 13 -67 32 -87 42 -32 16 -58 19
-185 18 -81 -1 -159 -4 -173 -6z m447 -144 c78 -40 123 -80 123 -109 0 -26
-30 -60 -53 -60 -13 0 -33 7 -46 17 -86 59 -188 86 -253 64 -38 -13 -98 -93
-98 -132 0 -13 -7 -37 -15 -53 -8 -15 -15 -41 -15 -57 l0 -29 78 1 c68 0 105
5 202 25 60 13 94 -76 40 -103 -77 -37 -108 -45 -206 -50 -131 -8 -127 0 -117
-202 l8 -146 30 3 c32 2 43 7 238 102 70 35 137 71 149 82 24 21 97 25 116 6
34 -34 -6 -89 -113 -150 -57 -32 -88 -47 -215 -105 -30 -14 -68 -31 -85 -39
-51 -23 -119 -46 -150 -51 -24 -4 -36 2 -58 25 -38 39 -46 101 -48 377 -2 181
1 230 14 274 10 30 17 68 17 83 0 38 51 145 87 183 74 80 86 85 193 85 96 0
101 -1 177 -41z m-720 -149 c53 -41 73 -70 84 -120 15 -70 3 -207 -22 -254
-10 -20 -19 -42 -19 -50 0 -8 -6 -21 -14 -28 -7 -8 -17 -24 -21 -37 -4 -13
-25 -46 -46 -75 -21 -28 -39 -56 -39 -61 0 -6 -44 -60 -98 -120 -85 -96 -102
-110 -133 -113 -25 -2 -40 3 -54 18 -10 11 -28 20 -40 20 -12 0 -34 13 -49 29
-28 29 -28 31 -33 188 -3 87 -12 183 -19 213 -22 84 -18 125 15 173 42 61 117
134 162 157 13 7 28 19 32 26 4 8 16 14 25 14 9 0 31 8 47 17 58 32 182 33
222 3z m-1334 -88 c20 -21 29 -43 34 -83 3 -30 12 -66 19 -80 7 -15 18 -58 23
-95 5 -38 17 -98 26 -134 9 -36 21 -83 27 -105 5 -22 14 -62 19 -90 6 -27 17
-72 26 -100 9 -27 22 -79 29 -115 10 -55 10 -68 -2 -87 -29 -45 -75 -23 -109
52 -14 30 -25 63 -25 74 0 11 -9 43 -20 71 -11 28 -20 67 -20 88 -1 20 -8 55
-16 77 -9 22 -20 69 -25 105 -5 36 -14 78 -20 93 -7 16 -17 59 -23 95 -9 55
-15 67 -31 70 -20 2 -24 -4 -98 -168 -11 -25 -26 -58 -33 -75 -8 -16 -18 -54
-24 -84 -12 -66 -44 -119 -76 -127 -28 -7 -80 29 -90 63 -3 12 -12 27 -19 33
-8 6 -17 24 -20 40 -3 15 -15 45 -26 66 -10 21 -19 45 -19 52 0 17 -39 82 -49
82 -10 0 -48 -80 -60 -130 -7 -25 -17 -63 -22 -85 -16 -59 -6 -351 14 -395 8
-19 18 -56 21 -82 4 -26 11 -50 16 -53 5 -3 14 -22 21 -43 11 -34 44 -90 61
-102 15 -11 28 -63 22 -86 -4 -14 -18 -30 -31 -35 -72 -27 -116 29 -239 306
-8 17 -18 48 -23 70 -5 22 -17 60 -26 85 -25 67 -27 391 -3 437 9 18 20 47 23
65 10 43 52 104 105 149 48 42 119 58 175 39 35 -12 34 -10 119 -194 l22 -49
28 59 c15 32 37 79 48 104 12 25 25 52 29 60 5 8 20 38 34 65 26 54 70 108 95
118 41 15 87 7 113 -21z m393 -71 c41 -25 194 -215 194 -240 0 -6 6 -14 14
-18 7 -4 18 -18 25 -31 6 -12 29 -30 49 -40 34 -16 37 -21 40 -65 2 -36 12
-62 38 -98 19 -27 34 -53 34 -58 0 -5 7 -14 15 -21 36 -30 1 -90 -52 -90 -29
0 -82 63 -148 175 -9 15 -23 18 -75 16 -34 -1 -66 -4 -70 -6 -4 -2 -1 -32 6
-67 14 -65 18 -195 8 -222 -4 -11 -19 -16 -44 -16 -49 0 -74 33 -84 107 -4 28
-13 67 -20 85 -7 18 -17 60 -21 93 -4 33 -13 72 -20 86 -8 14 -17 50 -21 80
-4 30 -13 66 -20 80 -7 15 -16 46 -20 70 -4 24 -13 56 -20 71 -8 15 -14 34
-14 43 0 23 46 59 93 72 60 16 78 15 113 -6z m1045 -643 c9 -7 37 -46 63 -85
27 -40 54 -73 61 -73 7 0 23 8 36 19 36 27 120 44 181 36 48 -6 59 -13 116
-71 34 -35 67 -75 72 -89 20 -54 -15 -103 -65 -91 -12 3 -39 27 -60 53 -71 89
-92 97 -160 63 -54 -27 -65 -45 -65 -102 0 -40 -4 -50 -25 -64 -41 -27 -87 -9
-103 41 -7 22 -19 54 -27 72 -8 17 -15 38 -15 46 0 9 -4 19 -10 22 -5 3 -19
25 -30 48 -11 23 -29 56 -39 72 -11 17 -20 41 -20 54 -2 49 54 79 90 49z
m-169 -75 c15 -16 30 -48 35 -73 8 -39 12 -46 38 -50 45 -8 56 -50 27 -100
-12 -22 -22 -50 -22 -63 0 -33 -36 -77 -64 -77 -25 0 -56 30 -74 72 -10 25
-14 27 -37 18 -15 -6 -42 -10 -60 -10 -43 0 -71 36 -60 77 8 35 21 43 65 43
57 0 64 10 56 77 -9 79 4 113 42 113 18 0 38 -10 54 -27z m-486 -47 c34 -53
-34 -115 -70 -64 -21 30 -20 44 4 68 27 27 46 25 66 -4z m-275 -102 c10 -13
13 -48 11 -142 -2 -68 -7 -135 -12 -147 -4 -12 -24 -38 -43 -58 -43 -46 -77
-48 -147 -7 -28 17 -54 30 -59 30 -12 0 -48 -43 -55 -67 -4 -12 -28 -36 -53
-52 -41 -28 -54 -31 -122 -31 -64 0 -80 4 -110 25 -20 14 -47 41 -61 61 -14
19 -42 58 -63 85 -45 58 -47 97 -7 116 40 19 77 5 110 -41 79 -111 84 -116
118 -122 45 -9 80 9 97 49 8 17 23 41 32 52 65 73 123 84 190 35 23 -17 44
-27 46 -23 3 4 8 40 12 78 8 72 27 138 46 162 16 18 54 16 70 -3z m298 -53
c17 -16 31 -35 31 -43 0 -8 9 -31 20 -53 11 -22 20 -46 20 -55 0 -9 5 -21 11
-27 16 -16 -7 -70 -33 -79 -50 -15 -87 23 -113 116 -8 25 -19 60 -26 77 -12
31 -11 34 16 63 16 16 32 30 36 30 4 0 21 -13 38 -29z m1037 -227 c20 -19 24
-31 19 -52 -9 -36 -7 -35 -81 -43 -65 -6 -104 -28 -104 -56 0 -7 10 -13 23
-13 78 0 54 -107 -28 -125 -57 -13 -62 -16 -73 -41 -15 -30 -15 -64 -2 -64 5
0 25 7 44 16 21 11 44 14 60 10 32 -8 51 -48 36 -76 -10 -18 -109 -90 -124
-90 -5 0 -19 -9 -33 -20 -26 -20 -87 -27 -109 -12 -6 4 -18 21 -27 37 -13 26
-13 35 -1 70 7 22 14 54 14 70 0 17 7 44 16 60 9 17 20 50 24 75 15 81 47 153
90 202 22 26 49 48 58 48 9 1 28 7 42 15 14 8 49 14 78 15 44 0 57 -4 78 -26z
m-546 -206 c13 -23 13 -32 1 -60 -7 -18 -18 -60 -23 -93 -6 -33 -17 -77 -24
-98 -8 -20 -14 -50 -14 -66 0 -39 -59 -92 -92 -84 -35 9 -66 37 -110 99 -113
162 -129 255 -43 254 24 -1 35 -9 58 -44 15 -24 27 -49 27 -55 0 -6 7 -14 15
-17 8 -3 17 -14 20 -25 9 -29 22 -14 30 34 4 23 14 54 21 69 8 15 14 35 14 44
0 10 12 31 27 46 34 36 71 34 93 -4z m-584 -73 c68 -36 72 -41 94 -115 35
-117 22 -209 -38 -272 -55 -59 -140 -27 -191 71 -20 38 -24 65 -28 162 l-5
116 33 32 c41 38 72 39 135 6z m-629 -115 c10 -11 21 -20 26 -20 17 0 98 -62
159 -123 35 -34 75 -69 88 -78 14 -9 65 -54 114 -100 48 -46 96 -88 105 -93 9
-5 18 -12 21 -16 13 -18 134 -120 141 -120 5 0 42 32 83 71 73 69 75 70 123
67 47 -3 48 -4 51 -37 3 -31 -4 -41 -87 -122 -106 -102 -139 -118 -207 -98
-25 8 -62 29 -82 49 -20 19 -77 71 -127 115 -49 44 -100 92 -114 106 -14 15
-48 44 -76 64 -27 21 -74 61 -104 89 -30 28 -61 58 -70 66 -9 8 -37 28 -61 44
-74 49 -100 77 -100 107 0 16 8 32 18 38 29 18 81 13 99 -9z"/>
<path d="M3130 3233 c-13 -3 -35 -14 -49 -24 -13 -10 -29 -19 -36 -19 -7 0
-43 -30 -80 -67 l-67 -68 7 -110 c4 -60 7 -133 6 -160 -2 -51 22 -162 38 -178
9 -9 121 122 188 221 79 118 143 282 130 334 -4 14 -18 37 -31 51 -25 27 -46
31 -106 20z"/>
<path d="M2361 2955 c0 -11 6 -45 13 -75 14 -60 32 -73 60 -42 16 19 16 22
-11 65 -15 26 -33 47 -40 47 -6 0 -14 6 -16 13 -3 6 -6 3 -6 -8z"/>
<path d="M2636 1591 c-9 -15 3 -71 15 -71 11 0 12 50 0 69 -6 9 -10 10 -15 2z"/>
</g>
</svg>
